# File created by Blade
# Date/Time:  Tue Jan 27 18:35:12 2015
#---------------------------------------------------------
:version 1.10
:name HOM
:units
  mass 1.0
  length 1.000000
  angle deg
:documentation
     Acclaim Skeleton File
:root
   axis xyz
   order TX TY TZ RX RY RZ
   position 0.000000 0.000000 0.000000
   orientation 0 0 0
:bonedata
   begin
      id 1
      name Spine_dum
      direction 0.000000 1.000000 0.000000
      length 5.195262
      axis 0.0 0.0 0.0 xyz
   end
   begin
      id 2
      name LeftUpLeg_dum
      direction 1.000000 0.000000 0.000000
      length 3.351363
      axis 0.0 0.0 0.0 xyz
   end
   begin
      id 3
      name RightUpLeg_dum
      direction -1.000000 0.000000 0.000000
      length 3.351363
      axis 0.0 0.0 0.0 xyz
   end
   begin
      id 4
      name Spine
      direction 0.000000 1.000000 0.000000
      length 0.000000
      axis 0.0 0.0 0.0 xyz
      dof rx ry rz
   end
   begin
      id 5
      name Spine_dum1
      direction 0.000000 1.000000 0.000000
      length 15.653875
      axis 0.0 0.0 0.0 xyz
   end
   begin
      id 6
      name Spine_dum2
      direction 0.000000 1.000000 0.000000
      length 10.329768
      axis 0.0 0.0 0.0 xyz
   end
   begin
      id 7
      name Spine_dum3
      direction 0.000000 1.000000 0.000000
      length 10.329768
      axis 0.0 0.0 0.0 xyz
   end
   begin
      id 8
      name Head
      direction 0.000000 1.000000 0.000000
      length 4.527550
      axis 0.0 0.0 0.0 xyz
      dof rx ry rz
   end
   begin
      id 9
      name LeftShoulder
      direction 1.000000 0.000000 0.000000
      length 6.996006
      axis 0.0 0.0 -90.0 xyz
      dof rx ry rz
   end
   begin
      id 10
      name LeftArm
      direction 1.000000 0.000000 0.000000
      length 10.209302
      axis 0.0 0.0 -90.0 xyz
      dof rx ry rz
   end
   begin
      id 11
      name LeftForeArm
      direction 1.000000 0.000000 0.000000
      length 8.563163
      axis 0.0 0.0 -90.0 xyz
      dof ry rz rx
   end
   begin
      id 12
      name LeftHand
      direction 0.000000 0.000000 0.000000
      length 0.000000
      axis 0.0 0.0 -90.0 xyz
      dof rx ry rz
   end
   begin
      id 13
      name LeftHand_dum1
      direction 0.000000 0.000000 0.000000
      length 0.000000
      axis 0.0 0.0 -90.0 xyz
   end
   begin
      id 14
      name LeftHand_dum2
      direction 1.000000 0.000000 0.000000
      length 3.937000
      axis 0.0 0.0 -90.0 xyz
   end
   begin
      id 15
      name LeftHandThumb1
      direction 0.000000 0.000000 1.000000
      length 3.937000
      axis 0.0 0.0 -90.0 xyz
      dof rx rz ry
   end
   begin
      id 16
      name RightShoulder
      direction -1.000000 0.000000 0.000000
      length 6.996006
      axis 0.0 0.0 90.0 xyz
      dof rx ry rz
   end
   begin
      id 17
      name RightArm
      direction -1.000000 0.000000 0.000000
      length 10.209302
      axis 0.0 0.0 90.0 xyz
      dof rx ry rz
   end
   begin
      id 18
      name RightForeArm
      direction -1.000000 0.000000 0.000000
      length 8.563163
      axis 0.0 0.0 90.0 xyz
      dof ry rz rx
   end
   begin
      id 19
      name RightHand
      direction 0.000000 0.000000 0.000000
      length 0.000000
      axis 0.0 0.0 90.0 xyz
      dof rx ry rz
   end
   begin
      id 20
      name RightHand_dum1
      direction 0.000000 0.000000 0.000000
      length 0.000000
      axis 0.0 0.0 90.0 xyz
   end
   begin
      id 21
      name RightHand_dum2
      direction -1.000000 0.000000 0.000000
      length 3.937000
      axis 0.0 0.0 90.0 xyz
   end
   begin
      id 22
      name RightHandThumb1
      direction 0.000000 0.000000 1.000000
      length 3.937000
      axis 0.0 0.0 90.0 xyz
      dof rx rz ry
   end
   begin
      id 23
      name LeftUpLeg
      direction 0.000000 -1.000000 0.000000
      length 16.346831
      axis 0.0 0.0 0.0 xyz
      dof rx ry rz
   end
   begin
      id 24
      name LeftLeg
      direction 0.000000 -1.000000 0.000000
      length 13.959795
      axis 0.0 0.0 0.0 xyz
      dof rx ry rz
   end
   begin
      id 25
      name LeftFoot
      direction 0.000000 -0.258819 0.965926
      length 5.165550
      axis 15.0 0.0 0.0 xyz
      dof rx ry rz
   end
   begin
      id 26
      name LeftToeBase
      direction 0.000000 0.000000 1.000000
      length 2.952750
      axis 0.0 0.0 0.0 xyz
      dof rx ry rz
   end
   begin
      id 27
      name RightUpLeg
      direction 0.000000 -1.000000 0.000000
      length 16.346831
      axis 0.0 0.0 0.0 xyz
      dof rx ry rz
   end
   begin
      id 28
      name RightLeg
      direction 0.000000 -1.000000 0.000000
      length 13.959795
      axis 0.0 0.0 0.0 xyz
      dof rx ry rz
   end
   begin
      id 29
      name RightFoot
      direction 0.000000 -0.258819 0.965926
      length 5.165550
      axis 15.0 0.0 0.0 xyz
      dof rx ry rz
   end
   begin
      id 30
      name RightToeBase
      direction 0.000000 0.000000 1.000000
      length 2.952750
      axis 0.0 0.0 0.0 xyz
      dof rx ry rz
   end
:hierarchy
   begin
      root Spine_dum LeftUpLeg_dum RightUpLeg_dum
      Spine_dum Spine
      LeftUpLeg_dum LeftUpLeg
      RightUpLeg_dum RightUpLeg
      Spine Spine_dum1 Spine_dum2 Spine_dum3
      Spine_dum1 Head
      Spine_dum2 LeftShoulder
      Spine_dum3 RightShoulder
      LeftShoulder LeftArm
      LeftArm LeftForeArm
      LeftForeArm LeftHand
      LeftHand LeftHand_dum1 LeftHand_dum2
      LeftHand_dum1 LeftHandThumb1
      RightShoulder RightArm
      RightArm RightForeArm
      RightForeArm RightHand
      RightHand RightHand_dum1 RightHand_dum2
      RightHand_dum1 RightHandThumb1
      LeftUpLeg LeftLeg
      LeftLeg LeftFoot
      LeftFoot LeftToeBase
      RightUpLeg RightLeg
      RightLeg RightFoot
      RightFoot RightToeBase
   end

# File created by Blade
# Date/Time:  Tue Jan 27 18:35:03 2015
# Frame Rate: 120.000 fps
#------------------------------------------------------
:FULLY-SPECIFIED
:DEGREES
898
root -3.518716 31.824697 -1.745681 -11.806874 23.324803 -14.069129
Spine 15.286353 -15.220740 -6.203298
Head 6.014946 -2.701865 18.432119
LeftShoulder -12.877248 12.594740 20.064961
LeftArm 31.927197 -22.613290 -75.970979
LeftForeArm 131.076697 -0.000000 135.643057
LeftHand 7.890475 -0.000000 -8.256840
LeftHandThumb1 -26.253704 0.000000 33.147579
RightShoulder -17.194226 -12.222126 -5.112996
RightArm 3.023264 -40.419630 80.653238
RightForeArm -24.375781 -0.000000 27.969787
RightHand -12.497623 -0.000000 14.741403
RightHandThumb1 -24.326973 -0.000000 -32.862282
LeftUpLeg -4.516611 2.618192 7.956280
LeftLeg 31.903704 -0.000000 -0.000000
LeftFoot -28.011637 -2.702392 -20.968221
LeftToeBase 16.613862 -0.000000 -0.000000
RightUpLeg -89.518215 5.411312 29.658925
RightLeg 86.384664 -0.000000 -0.000000
RightFoot -6.956687 7.363193 33.728122
RightToeBase 6.031260 -0.000000 -0.000000
899
root -3.524067 31.820819 -1.735519 -11.877403 23.561339 -13.977931
Spine 15.282319 -15.165200 -6.384138
Head 6.020274 -2.755306 18.210924
LeftShoulder -12.894428 12.653433 19.996537
LeftArm 31.948210 -23.027595 -75.907967
LeftForeArm 130.943620 -0.000000 135.588642
LeftHand 7.877306 0.000000 -8.245769
LeftHandThumb1 -26.253704 0.000000 33.147579
RightShoulder -17.165888 -12.287153 -5.136042
RightArm 2.884554 -40.426164 80.762574
RightForeArm -24.331066 0.000000 27.804196
RightHand -12.972353 -0.000000 14.194107
RightHandThumb1 -24.326973 -0.000000 -32.862282
LeftUpLeg -4.364187 2.525880 7.844662
LeftLeg 31.721444 -0.000000 -0.000000
LeftFoot -28.172190 -2.676946 -21.281560
LeftToeBase 16.164269 -0.000000 -0.000000
RightUpLeg -89.539024 5.070424 29.677952
RightLeg 86.349053 -0.000000 -0.000000
RightFoot -7.147285 6.985392 33.588638
RightToeBase 6.246007 -0.000000 -0.000000
900
root -3.531266 31.817102 -1.727629 -11.892895 23.783786 -13.890076
Spine 15.202459 -15.108712 -6.542314
Head 6.063815 -2.860344 18.026062
LeftShoulder -12.907548 12.626362 19.908957
LeftArm 31.924970 -23.373595 -75.808487
LeftForeArm 130.696404 -0.000000 135.549516
LeftHand 7.835103 -0.000000 -8.096365
LeftHandThumb1 -26.253704 0.000000 33.147579
RightShoulder -17.157813 -12.341538 -5.157392
RightArm 2.776587 -40.394659 80.860546
RightForeArm -24.338670 -0.000000 27.601478
RightHand -12.858414 0.000000 14.236012
RightHandThumb1 -24.326973 -0.000000 -32.862282
LeftUpLeg -4.267997 2.438342 7.734781
LeftLeg 31.531909 -0.000000 -0.000000
LeftFoot -28.301804 -2.650217 -21.612423
LeftToeBase 15.873586 -0.000000 -0.000000
RightUpLeg -89.596882 4.788933 29.654989
RightLeg 86.287799 -0.000000 -0.000000
RightFoot -7.215557 6.693964 33.405870
RightToeBase 5.767216 -0.000000 -0.000000
901
root -3.540311 31.814674 -1.716229 -11.926678 24.006526 -13.828983
Spine 15.148610 -15.038479 -6.687419
Head 6.027647 -2.929682 17.884041
LeftShoulder -12.899279 12.612008 19.859059
LeftArm 31.900971 -23.686774 -75.740363
LeftForeArm 130.492087 -0.000000 135.554432
LeftHand 7.896391 -0.000000 -8.013701
LeftHandThumb1 -26.253704 0.000000 33.147579
RightShoulder -17.183978 -12.369015 -5.146606
RightArm 2.665898 -40.335536 80.931681
RightForeArm -24.392773 -0.000000 27.421888
RightHand -12.827669 0.000000 14.469323
RightHandThumb1 -24.326973 -0.000000 -32.862282
LeftUpLeg -4.154518 2.343980 7.654288
LeftLeg 31.325677 -0.000000 -0.000000
LeftFoot -28.417950 -2.628401 -21.930923
LeftToeBase 15.575235 -0.000000 -0.000000
RightUpLeg -89.654123 4.499961 29.639173
RightLeg 86.235489 -0.000000 -0.000000
RightFoot -7.236344 6.553680 33.388415
RightToeBase 6.236853 -0.000000 -0.000000
902
root -3.548518 31.812086 -1.707937 -11.952821 24.268705 -13.763248
Spine 15.095979 -15.011063 -6.847125
Head 6.017253 -3.021546 17.747250
LeftShoulder -12.899704 12.567757 19.833067
LeftArm 31.889555 -23.890135 -75.718409
LeftForeArm 130.211003 -0.000000 135.581700
LeftHand 7.942535 -0.000000 -8.051630
LeftHandThumb1 -26.253704 0.000000 33.147579
RightShoulder -17.203642 -12.403380 -5.126267
RightArm 2.624161 -40.260421 80.954298
RightForeArm -24.543853 0.000000 27.233527
RightHand -12.752252 0.000000 14.818168
RightHandThumb1 -24.326973 -0.000000 -32.862282
LeftUpLeg -4.065560 2.188520 7.546703
LeftLeg 31.121045 -0.000000 -0.000000
LeftFoot -28.528223 -2.457442 -22.091605
LeftToeBase 15.180940 -0.000000 -0.000000
RightUpLeg -89.752991 4.181876 29.576693
RightLeg 86.208733 -0.000000 -0.000000
RightFoot -7.137302 6.528904 33.400241
RightToeBase 5.750796 -0.000000 -0.000000
903
root -3.556592 31.807195 -1.699576 -11.971930 24.522031 -13.684300
Spine 15.022365 -15.055972 -6.983175
Head 6.044837 -3.053128 17.500580
LeftShoulder -12.568102 12.291125 19.973496
LeftArm 31.199710 -24.455603 -75.585043
LeftForeArm 129.939184 -0.000000 135.835747
LeftHand 7.983134 -0.000000 -7.772880
LeftHandThumb1 -26.253704 0.000000 33.147579
RightShoulder -17.137205 -12.421630 -5.218442
RightArm 2.581366 -40.225791 81.048808
RightForeArm -24.542620 0.000000 26.989445
RightHand -12.624366 -0.000000 14.832414
RightHandThumb1 -24.326973 -0.000000 -32.862282
LeftUpLeg -3.980370 2.010803 7.417404
LeftLeg 30.928638 -0.000000 -0.000000
LeftFoot -28.647168 -2.278455 -22.229154
LeftToeBase 15.089431 -0.000000 -0.000000
RightUpLeg -89.857090 3.887902 29.481250
RightLeg 86.186875 -0.000000 -0.000000
RightFoot -7.047006 6.556604 33.336356
RightToeBase 5.665393 -0.000000 -0.000000
904
root -3.563238 31.804384 -1.691857 -11.982303 24.768572 -13.625673
Spine 14.943386 -15.090970 -7.121702
Head 6.056290 -3.085381 17.363850
LeftShoulder -12.539416 12.427175 19.942277
LeftArm 31.256182 -24.674394 -75.666045
LeftForeArm 129.685561 -0.000000 135.960922
LeftHand 8.053688 -0.000000 -7.660478
LeftHandThumb1 -26.253704 0.000000 33.147579
RightShoulder -17.093254 -12.413121 -5.235328
RightArm 2.570745 -40.145584 81.031122
RightForeArm -24.592397 -0.000000 26.796097
RightHand -12.557211 -0.000000 15.018340
RightHandThumb1 -24.326973 -0.000000 -32.862282
LeftUpLeg -3.918186 1.795623 7.287001
LeftLeg 30.739776 -0.000000 -0.000000
LeftFoot -28.776240 -2.000062 -22.384318
LeftToeBase 15.052137 -0.000000 -0.000000
RightUpLeg -89.973225 3.606927 29.380722
RightLeg 86.166515 -0.000000 -0.000000
RightFoot -6.984763 6.608752 33.372099
RightToeBase 5.942068 -0.000000 -0.000000
905
root -3.572065 31.802228 -1.683274 -11.981556 25.021348 -13.582823
Spine 14.858975 -15.106934 -7.260039
Head 6.024710 -3.184404 17.313359
LeftShoulder -12.656851 12.459310 19.886406
LeftArm 31.420420 -24.584571 -75.670747
LeftForeArm 129.574644 -0.000000 136.006792
LeftHand 8.091930 -0.000000 -7.723114
LeftHandThumb1 -26.253704 0.000000 33.147579
RightShoulder -17.089097 -12.359163 -5.219479
RightArm 2.535306 -40.098405 80.989018
RightForeArm -24.711904 0.000000 26.615955
RightHand -12.423595 -0.000000 15.469138
RightHandThumb1 -24.326973 -0.000000 -32.862282
LeftUpLeg -3.884964 1.505803 7.167003
LeftLeg 30.575693 -0.000000 -0.000000
LeftFoot -28.912365 -1.712105 -22.582171
LeftToeBase 15.021892 -0.000000 -0.000000
RightUpLeg -90.096475 3.341731 29.308216
RightLeg 86.126443 -0.000000 -0.000000
RightFoot -6.928514 6.624687 33.332237
RightToeBase 6.245530 -0.000000 -0.000000
906
root -3.578907 31.799870 -1.673427 -12.004370 25.234030 -13.539121
Spine 14.769022 -15.092461 -7.357264
Head 6.034921 -3.257974 17.175728
LeftShoulder -12.601981 12.446720 19.850139
LeftArm 31.383693 -24.563615 -75.602672
LeftForeArm 129.515787 -0.000000 136.107218
LeftHand 7.841864 -0.000000 -7.917532
LeftHandThumb1 -26.253704 0.000000 33.147579
RightShoulder -17.068478 -12.320773 -5.268231
RightArm 2.567379 -40.004213 80.947976
RightForeArm -24.422793 0.000000 26.366843
RightHand -13.000870 -0.000000 13.948664
RightHandThumb1 -24.326973 -0.000000 -32.862282
LeftUpLeg -3.835307 1.291559 7.072228
LeftLeg 30.463893 -0.000000 -0.000000
LeftFoot -28.950783 -1.485370 -22.637417
LeftToeBase 14.919993 -0.000000 -0.000000
RightUpLeg -90.188089 3.096497 29.230225
RightLeg 86.078070 -0.000000 -0.000000
RightFoot -6.898222 6.580111 33.243572
RightToeBase 6.254764 -0.000000 -0.000000
907
root -3.584931 31.798840 -1.663894 -12.031925 25.431528 -13.520425
Spine 14.664567 -15.067001 -7.430222
Head 6.101765 -3.372950 17.089989
LeftShoulder -12.607513 12.476960 19.795247
LeftArm 31.523938 -24.439935 -75.636877
LeftForeArm 129.448226 -0.000000 136.157933
LeftHand 7.838616 -0.000000 -7.833168
LeftHandThumb1 -26.253704 0.000000 33.147579
RightShoulder -17.046455 -12.297490 -5.283558
RightArm 2.602743 -39.931081 80.874462
RightForeArm -24.667610 -0.000000 26.227995
RightHand -12.616963 -0.000000 14.728443
RightHandThumb1 -24.326973 -0.000000 -32.862282
LeftUpLeg -3.788581 1.021024 6.989456
LeftLeg 30.362392 -0.000000 -0.000000
LeftFoot -28.991572 -1.282990 -22.556134
LeftToeBase 14.876418 -0.000000 -0.000000
RightUpLeg -90.273164 2.859395 29.185331
RightLeg 86.038131 -0.000000 -0.000000
RightFoot -6.936167 6.466894 33.159792
RightToeBase 5.740187 -0.000000 -0.000000
908
root -3.593998 31.798998 -1.650108 -12.086309 25.581972 -13.515883
Spine 14.574296 -15.016297 -7.505639
Head 6.149837 -3.442448 17.015656
LeftShoulder -12.611185 12.498743 19.779531
LeftArm 31.633464 -24.299682 -75.699477
LeftForeArm 129.369867 0.000000 136.241002
LeftHand 8.018307 -0.000000 -7.625493
LeftHandThumb1 -26.253704 0.000000 33.147579
RightShoulder -17.006140 -12.260580 -5.307001
RightArm 2.652820 -39.809750 80.789061
RightForeArm -24.618229 -0.000000 26.079954
RightHand -12.829781 -0.000000 14.733467
RightHandThumb1 -24.326973 -0.000000 -32.862282
LeftUpLeg -3.712643 0.817196 6.960080
LeftLeg 30.279624 -0.000000 -0.000000
LeftFoot -29.025721 -1.183262 -22.573023
LeftToeBase 14.867373 -0.000000 -0.000000
RightUpLeg -90.299793 2.673832 29.167056
RightLeg 85.979351 -0.000000 -0.000000
RightFoot -7.092236 6.238733 33.161210
RightToeBase 5.865161 -0.000000 -0.000000
